<svg width="20" height="20" viewBox="0 0 20 20" fill="none" xmlns="http://www.w3.org/2000/svg">
<path fill-rule="evenodd" clip-rule="evenodd" d="M14.5022 11.4717C14.5307 11.2883 14.5454 11.1004 14.5454 10.9091C14.5454 8.90076 12.9174 7.27271 10.9091 7.27271C10.7177 7.27271 10.5299 7.28748 10.3465 7.31596L14.5022 11.4717ZM7.80379 9.01589C7.46687 9.56735 7.27272 10.2155 7.27272 10.9091C7.27272 12.9174 8.90078 14.5454 10.9091 14.5454C11.6026 14.5454 12.2508 14.3513 12.8023 14.0144L11.289 12.5011C11.1671 12.5301 11.0399 12.5454 10.9091 12.5454C10.0053 12.5454 9.27272 11.8128 9.27272 10.9091C9.27272 10.7783 9.28806 10.6511 9.31705 10.5292L7.80379 9.01589Z" fill="#999999"/>
<path fill-rule="evenodd" clip-rule="evenodd" d="M14.9622 16.1745L13.4864 14.6987C12.6577 15.1109 11.7888 15.3637 10.9091 15.3637C9.57616 15.3637 8.26807 14.7834 7.08705 13.9476C5.91308 13.1168 4.94458 12.0897 4.31223 11.3325C4.21173 11.2122 4.13696 11.1225 4.07506 11.0436C4.02707 10.9825 3.9964 10.9397 3.97635 10.9091C3.9964 10.8785 4.02707 10.8358 4.07506 10.7746C4.13696 10.6957 4.21173 10.6061 4.31223 10.4857C4.89947 9.78262 5.77661 8.84664 6.839 8.05129L5.41236 6.62466C4.28683 7.50369 3.38038 8.48147 2.77719 9.20368C2.75362 9.2319 2.72906 9.26091 2.70379 9.29077L2.70375 9.29082C2.3872 9.66478 1.9586 10.1711 1.9586 10.9091C1.9586 11.6472 2.3872 12.1535 2.70375 12.5275L2.70377 12.5275C2.72905 12.5573 2.75362 12.5864 2.77719 12.6146C3.47058 13.4448 4.56471 14.6127 5.93171 15.5801C7.29165 16.5426 9.00288 17.3637 10.9091 17.3637C12.4055 17.3637 13.7817 16.8577 14.9622 16.1745ZM8.07281 5.04246C8.94837 4.68401 9.90149 4.45459 10.9091 4.45459C12.8153 4.45459 14.5265 5.27571 15.8865 6.23813C17.2535 7.20554 18.3476 8.37347 19.041 9.20368C19.0646 9.23191 19.0891 9.26094 19.1144 9.29081C19.431 9.66477 19.8596 10.1711 19.8596 10.9091C19.8596 11.6472 19.431 12.1535 19.1144 12.5275C19.0891 12.5573 19.0646 12.5864 19.041 12.6146C18.625 13.1127 18.0647 13.7324 17.3877 14.3574L15.9723 12.9419C16.5921 12.3758 17.1137 11.8022 17.5059 11.3325C17.6064 11.2122 17.6812 11.1225 17.7431 11.0436C17.7911 10.9825 17.8218 10.9397 17.8418 10.9091C17.8218 10.8785 17.7911 10.8358 17.7431 10.7746C17.6812 10.6957 17.6064 10.6061 17.5059 10.4857C16.8736 9.72861 15.9051 8.70148 14.7311 7.87067C13.5501 7.03486 12.242 6.45459 10.9091 6.45459C10.4858 6.45459 10.0651 6.5131 9.65007 6.61973L8.07281 5.04246Z" fill="#999999"/>
<path d="M4.54546 1.81824L19.0909 16.3637" stroke="#999999" stroke-width="2"/>
</svg>
