<svg width="1.6875rem" height="1.75rem" viewBox="0 0 27 28" fill="none" xmlns="http://www.w3.org/2000/svg">
<g clip-path="url(#clip0_125_902)">
<path d="M13.5 2.59121C17.107 2.59121 17.5342 2.60703 18.9527 2.67031C20.2711 2.72832 20.983 2.9498 21.4576 3.13438C22.0852 3.37695 22.5387 3.67227 23.008 4.1416C23.4826 4.61621 23.7727 5.06445 24.0152 5.69199C24.1998 6.1666 24.4213 6.88379 24.4793 8.19687C24.5426 9.6207 24.5584 10.0479 24.5584 13.6496C24.5584 17.2566 24.5426 17.6838 24.4793 19.1023C24.4213 20.4207 24.1998 21.1326 24.0152 21.6072C23.7727 22.2348 23.4773 22.6883 23.008 23.1576C22.5334 23.6322 22.0852 23.9223 21.4576 24.1648C20.983 24.3494 20.2658 24.5709 18.9527 24.6289C17.5289 24.6922 17.1018 24.708 13.5 24.708C9.89297 24.708 9.46582 24.6922 8.04727 24.6289C6.72891 24.5709 6.01699 24.3494 5.54238 24.1648C4.91484 23.9223 4.46133 23.627 3.99199 23.1576C3.51738 22.683 3.22734 22.2348 2.98477 21.6072C2.8002 21.1326 2.57871 20.4154 2.5207 19.1023C2.45742 17.6785 2.4416 17.2514 2.4416 13.6496C2.4416 10.0426 2.45742 9.61543 2.5207 8.19687C2.57871 6.87852 2.8002 6.1666 2.98477 5.69199C3.22734 5.06445 3.52266 4.61094 3.99199 4.1416C4.4666 3.66699 4.91484 3.37695 5.54238 3.13438C6.01699 2.9498 6.73418 2.72832 8.04727 2.67031C9.46582 2.60703 9.89297 2.59121 13.5 2.59121ZM13.5 0.160156C9.83496 0.160156 9.37617 0.175977 7.93652 0.239258C6.50215 0.302539 5.51602 0.53457 4.66172 0.866797C3.77051 1.21484 3.01641 1.67363 2.26758 2.42773C1.51348 3.17656 1.05469 3.93066 0.706641 4.8166C0.374414 5.67617 0.142383 6.65703 0.0791016 8.09141C0.0158203 9.53633 0 9.99512 0 13.6602C0 17.3252 0.0158203 17.784 0.0791016 19.2236C0.142383 20.658 0.374414 21.6441 0.706641 22.4984C1.05469 23.3896 1.51348 24.1437 2.26758 24.8926C3.01641 25.6414 3.77051 26.1055 4.65645 26.4482C5.51602 26.7805 6.49688 27.0125 7.93125 27.0758C9.3709 27.1391 9.82969 27.1549 13.4947 27.1549C17.1598 27.1549 17.6186 27.1391 19.0582 27.0758C20.4926 27.0125 21.4787 26.7805 22.333 26.4482C23.2189 26.1055 23.973 25.6414 24.7219 24.8926C25.4707 24.1437 25.9348 23.3897 26.2775 22.5037C26.6098 21.6441 26.8418 20.6633 26.9051 19.2289C26.9684 17.7893 26.9842 17.3305 26.9842 13.6654C26.9842 10.0004 26.9684 9.5416 26.9051 8.10195C26.8418 6.66758 26.6098 5.68145 26.2775 4.82715C25.9453 3.93066 25.4865 3.17656 24.7324 2.42773C23.9836 1.67891 23.2295 1.21484 22.3436 0.87207C21.484 0.539844 20.5031 0.307813 19.0688 0.244531C17.6238 0.175977 17.165 0.160156 13.5 0.160156Z" fill="#000100"/>
<path d="M13.5 6.72559C9.67148 6.72559 6.56543 9.83164 6.56543 13.6602C6.56543 17.4887 9.67148 20.5947 13.5 20.5947C17.3285 20.5947 20.4346 17.4887 20.4346 13.6602C20.4346 9.83164 17.3285 6.72559 13.5 6.72559ZM13.5 18.1584C11.0162 18.1584 9.00176 16.1439 9.00176 13.6602C9.00176 11.1764 11.0162 9.16191 13.5 9.16191C15.9838 9.16191 17.9982 11.1764 17.9982 13.6602C17.9982 16.1439 15.9838 18.1584 13.5 18.1584Z" fill="#000100"/>
<path d="M22.3277 6.45147C22.3277 7.34795 21.6 8.07042 20.7088 8.07042C19.8123 8.07042 19.0898 7.34268 19.0898 6.45147C19.0898 5.55498 19.8176 4.83252 20.7088 4.83252C21.6 4.83252 22.3277 5.56026 22.3277 6.45147Z" fill="#000100"/>
</g>
<defs>
<clipPath id="clip0_125_902">
<rect width="27" height="27" fill="white" transform="translate(0 0.160156)"/>
</clipPath>
</defs>
</svg>
