<svg width="1.5625rem" height="1.625rem" viewBox="0 0 25 26" fill="none" xmlns="http://www.w3.org/2000/svg">
<path d="M2.5 12L1.71913 11.3753L1.21938 12L1.71913 12.6247L2.5 12ZM11.5 13C12.0523 13 12.5 12.5523 12.5 12C12.5 11.4477 12.0523 11 11.5 11V13ZM5.71913 6.3753L1.71913 11.3753L3.28087 12.6247L7.28087 7.6247L5.71913 6.3753ZM1.71913 12.6247L5.71913 17.6247L7.28087 16.3753L3.28087 11.3753L1.71913 12.6247ZM2.5 13H11.5V11H2.5V13Z" fill="#33363F"/>
<path d="M10.5 8.13193V7.38851C10.5 5.77017 10.5 4.961 10.974 4.4015C11.4479 3.84201 12.2461 3.70899 13.8424 3.44293L15.5136 3.1644C18.7567 2.62388 20.3782 2.35363 21.4391 3.25232C22.5 4.15102 22.5 5.79493 22.5 9.08276V14.9172C22.5 18.2051 22.5 19.849 21.4391 20.7477C20.3782 21.6464 18.7567 21.3761 15.5136 20.8356L13.8424 20.5571C12.2461 20.291 11.4479 20.158 10.974 19.5985C10.5 19.039 10.5 18.2298 10.5 16.6115V16.066" stroke="#33363F" stroke-width="2"/>
</svg>
